<svg width="660" height="231" viewBox="0 0 660 231" fill="none" xmlns="http://www.w3.org/2000/svg">
<path fill-rule="evenodd" clip-rule="evenodd" d="M87.6072 13.8184L64.7232 23.6464L45.6992 10.4484L68.5132 0.691406L87.6072 13.8184Z" fill="#3DC8F8"/>
<path fill-rule="evenodd" clip-rule="evenodd" d="M64.7232 135.823L45.6992 122.696V10.4492L64.7232 23.6472V135.823Z" fill="#00ABF0"/>
<path fill-rule="evenodd" clip-rule="evenodd" d="M64.723 77.2774L45.699 64.1504L0 83.7354L19.024 96.8624L64.723 77.2774Z" fill="#F72072"/>
<path fill-rule="evenodd" clip-rule="evenodd" d="M19.023 155.408L0 142.281V83.7363L19.023 96.8633V155.408Z" fill="#E4003D"/>
<path fill-rule="evenodd" clip-rule="evenodd" d="M64.7227 135.822L87.6067 125.994V13.8184L64.7227 23.6464V135.822Z" fill="#00B8F5"/>
<path fill-rule="evenodd" clip-rule="evenodd" d="M106.631 60.4997L83.7467 70.2567L64.7227 57.1297L87.6077 47.3027L106.631 60.4997Z" fill="#F72072"/>
<path fill-rule="evenodd" clip-rule="evenodd" d="M83.7457 148.95L64.7227 135.823V57.1309L83.7457 70.2579V148.95Z" fill="#E4003D"/>
<path fill-rule="evenodd" clip-rule="evenodd" d="M83.7461 148.949L106.63 139.192V60.5L83.7461 70.257V148.949Z" fill="#F2005A"/>
<path fill-rule="evenodd" clip-rule="evenodd" d="M19.0234 96.8623V155.407L64.7224 135.822V77.2773L19.0234 96.8623Z" fill="#F2005A"/>
<path fill-rule="evenodd" clip-rule="evenodd" d="M125.654 101.285L102.769 111.042L83.7461 97.9149L106.63 88.0879L125.654 101.285Z" fill="#3DC8F8"/>
<path fill-rule="evenodd" clip-rule="evenodd" d="M102.769 162.147L83.7461 148.95V97.916L102.769 111.043V162.147Z" fill="#00ABF0"/>
<path fill-rule="evenodd" clip-rule="evenodd" d="M102.77 162.146L125.655 152.318V101.285L102.77 111.042V162.146Z" fill="#00B8F5"/>
<path fill-rule="evenodd" clip-rule="evenodd" d="M38.0474 168.604L19.0234 155.407V118.062L38.0474 131.19V168.604Z" fill="#75C500"/>
<path fill-rule="evenodd" clip-rule="evenodd" d="M38.0469 168.604L60.8609 158.776V121.361L38.0469 131.189V168.604Z" fill="#8BCB00"/>
<path fill-rule="evenodd" clip-rule="evenodd" d="M83.7464 111.603L64.7234 98.4062L41.8384 108.233L19.0234 118.061L38.0474 131.188L60.8614 121.36L79.9554 134.558L102.769 124.73L83.7464 111.603Z" fill="#BEDE63"/>
<path fill-rule="evenodd" clip-rule="evenodd" d="M79.9553 171.903L60.8613 158.776V121.361L79.9553 134.558V171.903Z" fill="#75C500"/>
<path fill-rule="evenodd" clip-rule="evenodd" d="M79.9551 171.903L102.769 162.146V124.73L79.9551 134.558V171.903Z" fill="#8BCB00"/>
<path fill-rule="evenodd" clip-rule="evenodd" d="M79.9568 153.232L57.0718 163.06L38.0488 149.862L60.8628 140.105L79.9568 153.232Z" fill="#F7F443"/>
<path fill-rule="evenodd" clip-rule="evenodd" d="M57.0718 181.731L38.0488 168.604V149.861L57.0718 163.058V181.731Z" fill="#FFC300"/>
<path fill-rule="evenodd" clip-rule="evenodd" d="M57.0703 181.732L79.9553 171.904V153.232L57.0703 163.059V181.732Z" fill="#FFD000"/>
<path fill-rule="evenodd" clip-rule="evenodd" d="M360.886 84.9281C364.958 84.9281 368.678 85.7001 371.907 87.3141C375.137 88.9291 377.944 91.1051 380.191 93.9831C382.156 96.7911 383.771 100.091 384.894 104.021C386.088 107.953 386.649 112.164 386.649 116.727V122.554H344.179V122.624C344.46 125.291 344.951 127.748 345.653 129.995C346.356 132.241 347.338 134.066 348.602 135.54C351.55 139.191 355.692 141.016 361.097 141.016C366.713 141.016 372.82 138.349 379.348 133.083L385.596 143.192C381.103 146.421 376.751 148.808 372.539 150.422C368.327 152.037 364.115 152.809 359.903 152.809C355.762 152.809 351.971 151.967 348.462 150.352C344.951 148.738 341.863 146.421 339.265 143.473C336.738 140.455 334.773 136.944 333.439 132.803C332.105 128.661 331.474 123.888 331.474 118.482C331.474 113.85 332.175 109.567 333.509 105.636C334.913 101.705 336.879 98.1251 339.406 94.9661C342.214 91.8071 345.443 89.4201 349.093 87.5951C352.743 85.8401 356.674 84.9281 360.886 84.9281ZM256.082 84.9276C265.348 84.9276 272.719 88.0166 278.194 94.2646C280.932 97.3536 282.897 100.934 284.301 105.005C285.635 109.076 286.337 113.709 286.337 119.044C286.337 123.959 285.635 128.381 284.231 132.452C282.827 136.454 280.791 140.034 278.124 143.192C275.456 146.281 272.227 148.668 268.366 150.353C264.435 151.967 260.153 152.74 255.45 152.74C250.746 152.74 246.465 151.967 242.604 150.353C238.813 148.738 235.444 146.352 232.706 143.192C230.038 140.104 228.002 136.594 226.599 132.593C225.195 128.591 224.493 124.169 224.493 119.185C224.493 113.99 225.265 109.287 226.739 105.146C228.213 100.934 230.39 97.3536 233.197 94.2646C236.075 91.3156 239.445 89.0696 243.376 87.3846C247.307 85.7706 251.519 84.9276 256.082 84.9276ZM484.084 84.6472C488.576 84.6472 492.859 85.5592 496.93 87.3852C501.001 89.2102 504.582 91.6672 507.67 94.7552C510.759 97.8442 513.216 101.424 515.041 105.566C516.866 109.707 517.779 114.06 517.779 118.763V148.387C517.779 149.58 517.358 150.633 516.515 151.475C515.673 152.318 514.62 152.739 513.427 152.739C512.233 152.739 511.18 152.318 510.338 151.475C509.495 150.633 509.074 149.58 509.074 148.387V139.823C505.986 143.262 502.265 146.281 497.913 148.738C493.56 151.195 488.857 152.458 483.803 152.458C479.1 152.458 474.747 151.616 470.676 149.931C466.605 148.246 463.024 145.93 459.936 142.911C456.847 139.892 454.39 136.383 452.635 132.241C450.88 128.099 449.968 123.607 449.968 118.763C449.968 114.06 450.81 109.638 452.565 105.495C454.32 101.354 456.707 97.7042 459.725 94.6152C462.743 91.5262 466.394 89.0692 470.535 87.3142C474.678 85.5592 479.24 84.6472 484.084 84.6472ZM559.125 84.6472C563.618 84.6472 567.9 85.5592 571.971 87.3852C576.043 89.2102 579.623 91.6672 582.712 94.7552C585.801 97.8442 588.258 101.424 590.083 105.566C591.908 109.707 592.821 114.06 592.821 118.763V148.387C592.821 149.58 592.399 150.633 591.557 151.475C590.715 152.318 589.661 152.739 588.468 152.739C587.275 152.739 586.222 152.318 585.379 151.475C584.537 150.633 584.116 149.58 584.116 148.387V139.823C581.027 143.262 577.306 146.281 572.954 148.738C568.602 151.195 563.899 152.458 558.845 152.458C554.141 152.458 549.789 151.616 545.718 149.931C541.646 148.246 538.066 145.93 534.977 142.911C531.888 139.892 529.431 136.383 527.677 132.241C525.922 128.099 525.009 123.607 525.009 118.763C525.009 114.06 525.851 109.638 527.607 105.495C529.362 101.354 531.748 97.7042 534.767 94.6152C537.785 91.5262 541.435 89.0692 545.577 87.3142C549.719 85.5592 554.282 84.6472 559.125 84.6472ZM427.364 60.1484C430.804 60.1484 434.033 60.7794 437.051 62.1134C440.07 63.4474 442.667 65.2024 444.913 67.4484C447.16 69.6954 448.985 72.3624 450.248 75.3104C451.582 78.3294 452.214 81.4884 452.214 84.8584C452.214 88.2274 451.582 91.4564 450.248 94.4744C448.985 97.4934 447.159 100.16 444.913 102.337C442.667 104.583 439.999 106.338 437.051 107.601C434.033 108.935 430.804 109.567 427.364 109.567H408.27V148.035C408.27 149.299 407.849 150.352 406.936 151.195C406.094 152.037 405.041 152.528 403.778 152.528C402.514 152.528 401.461 152.107 400.618 151.195C399.776 150.352 399.285 149.299 399.285 148.035V64.7814C399.285 63.5174 399.706 62.4644 400.618 61.5514C401.461 60.6394 402.514 60.1484 403.778 60.1484H427.364ZM630.727 60.2885C632.833 60.2885 635.009 60.4285 637.326 60.7795C639.572 61.1305 641.818 61.6925 644.065 62.6055C646.311 63.4475 648.417 64.7105 650.523 66.1855C652.629 67.7295 654.524 69.6945 656.209 72.0815C656.77 72.9235 657.051 73.9775 657.051 75.1005C657.051 76.4345 656.63 77.5575 655.788 78.4695C654.945 79.3825 653.893 79.8735 652.559 79.8735C650.804 79.8735 649.47 79.1015 648.487 77.5575C647.294 75.6615 645.96 74.1175 644.415 72.9945C642.872 71.8715 641.327 71.0285 639.712 70.4675C638.098 69.9055 636.554 69.5545 634.939 69.4145C633.324 69.2735 631.92 69.2035 630.657 69.2035C628.762 69.2035 626.726 69.4145 624.55 69.9055C622.444 70.3975 620.478 71.1695 618.723 72.2225C616.968 73.2745 615.494 74.6795 614.301 76.5035C613.178 78.2595 612.546 80.5055 612.546 83.2435C612.546 85.1385 613.388 86.8935 615.073 88.4385C616.758 89.9815 618.793 91.3155 621.25 92.5095C623.637 93.6325 626.164 94.6855 628.762 95.5275C631.359 96.3705 633.605 97.1425 635.43 97.8445C639.081 99.1785 642.45 100.653 645.398 102.197C648.417 103.741 650.944 105.566 653.12 107.672C655.296 109.778 656.981 112.235 658.174 115.044C659.368 117.851 659.999 121.15 659.999 125.011C659.999 128.872 659.157 132.452 657.542 135.822C655.928 139.191 653.682 142.14 650.944 144.597C648.206 147.053 645.047 148.949 641.467 150.353C637.887 151.757 634.166 152.459 630.306 152.459C627.638 152.459 624.76 152.108 621.812 151.336C618.864 150.634 616.056 149.581 613.458 148.317C610.79 146.983 608.404 145.439 606.228 143.614C604.052 141.789 602.367 139.753 601.244 137.577C600.752 136.805 600.542 136.032 600.542 135.26C600.542 134.067 600.963 133.014 601.946 132.102C602.858 131.119 603.981 130.627 605.315 130.627C607.141 130.627 608.474 131.399 609.387 132.944C610.229 134.699 611.563 136.173 613.248 137.506C614.933 138.84 616.758 139.893 618.793 140.806C620.829 141.718 622.865 142.42 624.971 142.842C627.007 143.263 628.902 143.473 630.517 143.473C633.114 143.473 635.641 142.982 638.168 141.999C640.695 141.017 642.871 139.753 644.767 138.068C646.662 136.454 648.136 134.488 649.33 132.242C650.523 129.996 651.084 127.539 651.084 124.941C651.084 122.344 650.593 120.098 649.54 118.132C648.558 116.237 647.083 114.552 645.258 113.078C643.433 111.604 641.257 110.34 638.729 109.147C636.273 108.164 633.605 107.111 630.727 106.128C627.849 105.286 624.76 104.163 621.531 102.899C618.302 101.566 615.354 100.021 612.686 98.1955C610.019 96.3705 607.843 94.1935 606.088 91.7365C604.333 89.2805 603.491 86.4725 603.491 83.3135C603.491 79.6635 604.333 76.3635 605.947 73.5555C607.562 70.7485 609.738 68.2915 612.335 66.3255C614.933 64.3595 617.881 62.8855 621.11 61.8335C624.339 60.8505 627.568 60.2885 630.727 60.2885ZM220.421 60.4289V72.9239H187.147V99.9499H218.105V112.376H187.147V151.335H174.16V60.4289H220.421ZM319.119 85.209C320.453 85.209 321.857 85.349 323.331 85.7C324.805 86.051 326.49 86.613 328.315 87.455V102.337C326.7 100.933 325.156 99.88 323.612 99.248C322.067 98.617 320.593 98.266 319.119 98.266C317.715 98.266 316.311 98.476 315.047 98.967C313.784 99.459 312.591 100.091 311.467 100.863C310.344 101.635 309.361 102.478 308.449 103.32C307.537 104.233 306.764 105.075 306.062 105.847V151.265H293.988V86.332H306.062V89.842C308.098 88.227 310.204 87.034 312.31 86.262C314.416 85.489 316.732 85.139 319.119 85.209ZM483.803 93.4922C480.363 93.4922 477.064 94.1232 474.046 95.4572C471.027 96.7912 468.36 98.5462 466.043 100.863C463.726 103.179 461.971 105.846 460.637 108.935C459.304 112.024 458.672 115.324 458.672 118.763C458.672 122.203 459.304 125.502 460.637 128.52C461.971 131.539 463.726 134.206 466.043 136.523C468.36 138.84 471.027 140.595 474.046 141.929C477.064 143.262 480.363 143.894 483.803 143.894C487.173 143.894 490.331 143.262 493.35 141.998C496.368 140.735 498.966 138.98 501.282 136.734C503.599 134.487 505.424 131.82 506.758 128.802C508.092 125.783 508.864 122.413 509.074 118.763C509.074 115.324 508.443 112.024 507.109 108.935C505.775 105.846 504.02 103.179 501.703 100.863C499.387 98.5462 496.72 96.7912 493.631 95.4572C490.542 94.1242 487.243 93.4922 483.803 93.4922ZM558.845 93.4922C555.405 93.4922 552.106 94.1232 549.087 95.4572C546.069 96.7912 543.401 98.5462 541.084 100.863C538.768 103.179 537.013 105.846 535.679 108.935C534.345 112.024 533.714 115.324 533.714 118.763C533.714 122.203 534.345 125.502 535.679 128.52C537.013 131.539 538.768 134.206 541.084 136.523C543.401 138.84 546.069 140.595 549.087 141.929C552.106 143.262 555.405 143.894 558.845 143.894C562.214 143.894 565.373 143.262 568.391 141.998C571.41 140.735 574.007 138.98 576.324 136.734C578.64 134.487 580.466 131.82 581.799 128.802C583.133 125.783 583.905 122.413 584.116 118.763C584.116 115.324 583.484 112.024 582.15 108.935C580.816 105.846 579.061 103.179 576.745 100.863C574.428 98.5462 571.761 96.7912 568.672 95.4572C565.583 94.1242 562.284 93.4922 558.845 93.4922ZM255.871 96.7916C250.045 96.7916 245.482 98.6866 242.112 102.478C238.743 106.339 237.058 111.955 237.058 119.325C237.058 125.924 238.743 131.259 242.112 135.19C245.412 138.981 249.904 140.876 255.59 140.876C258.469 140.876 260.996 140.385 263.242 139.402C265.488 138.419 267.384 137.085 268.928 135.4C270.473 133.505 271.666 131.119 272.508 128.311C273.35 125.503 273.771 122.344 273.771 118.834C273.771 111.674 272.227 106.198 269.139 102.408C266.12 98.6866 261.698 96.7916 255.871 96.7916ZM360.746 96.8611C358.57 96.8611 356.534 97.2121 354.639 97.9851C352.814 98.7571 351.129 99.8801 349.725 101.284C348.672 102.407 347.759 103.741 346.917 105.355C346.145 106.97 345.443 108.795 344.951 110.831H373.943C373.381 106.338 371.978 102.828 369.731 100.441C367.415 98.0551 364.466 96.8611 360.746 96.8611ZM427.294 69.0634H408.2V100.652H427.294C429.4 100.652 431.435 100.231 433.401 99.3884C435.296 98.5464 437.051 97.4234 438.455 96.0194C439.929 94.5454 441.053 92.9304 441.825 91.0354C442.667 89.1394 443.088 87.1044 443.088 84.8584C443.088 82.7524 442.667 80.7164 441.825 78.7504C440.982 76.8554 439.859 75.1004 438.455 73.6964C436.981 72.2224 435.296 71.0994 433.401 70.3264C431.435 69.4844 429.47 69.0634 427.294 69.0634Z" fill="#333333"/>
<path d="M106.276 209.539C104.214 209.539 102.523 208.895 101.203 207.606C99.9147 206.318 99.2706 204.643 99.2706 202.582C99.2706 200.038 100.382 198.073 102.604 196.688C104.826 195.271 108.369 194.305 113.232 193.79C113.2 192.534 112.862 191.455 112.218 190.553C111.606 189.619 110.495 189.152 108.884 189.152C107.725 189.152 106.581 189.377 105.454 189.828C104.359 190.279 103.28 190.827 102.217 191.471L100.188 187.751C101.509 186.914 102.99 186.189 104.633 185.577C106.308 184.965 108.079 184.659 109.947 184.659C112.91 184.659 115.116 185.545 116.566 187.316C118.047 189.055 118.788 191.583 118.788 194.901V208.959H114.198L113.812 206.35H113.619C112.556 207.252 111.412 208.009 110.189 208.621C108.997 209.233 107.693 209.539 106.276 209.539ZM108.063 205.191C109.029 205.191 109.899 204.965 110.672 204.514C111.477 204.031 112.33 203.387 113.232 202.582V197.268C110.011 197.687 107.773 198.315 106.517 199.152C105.261 199.957 104.633 200.956 104.633 202.147C104.633 203.21 104.955 203.983 105.599 204.466C106.243 204.949 107.065 205.191 108.063 205.191ZM124.953 208.959V185.239H129.543L129.929 188.427H130.123C131.185 187.397 132.345 186.511 133.601 185.77C134.857 185.029 136.29 184.659 137.9 184.659C140.445 184.659 142.297 185.48 143.456 187.123C144.616 188.765 145.195 191.084 145.195 194.08V208.959H139.64V194.804C139.64 192.84 139.35 191.455 138.77 190.649C138.19 189.844 137.24 189.442 135.92 189.442C134.889 189.442 133.971 189.699 133.166 190.215C132.393 190.698 131.507 191.422 130.509 192.389V208.959H124.953Z" fill="#333333"/>
<g clip-path="url(#clip0_1738_9477)">
<path fill-rule="evenodd" clip-rule="evenodd" d="M237.141 169.563C240.84 176.187 242.473 183.754 241.835 191.303C241.196 198.851 238.314 206.041 233.554 211.958H212.994L219.323 200.838H210.951L220.819 183.562H229.239L237.141 169.582V169.563ZM196.538 211.958H175.574C170.726 206.067 167.784 198.856 167.135 191.272C166.487 183.689 168.161 176.088 171.94 169.468L185.538 192.938L200.527 167H222.584L196.547 211.939L196.538 211.958Z" fill="#333333"/>
<path d="M254.469 191.088C254.469 179.091 260.482 173.326 270.359 173.326C280.237 173.326 286.24 179.091 286.24 191.088C286.24 203.086 280.189 208.784 270.359 208.784C260.53 208.784 254.469 202.971 254.469 191.088ZM258.036 191.088C258.036 200.951 262.563 205.649 270.359 205.649C278.156 205.649 282.673 200.951 282.673 191.088C282.673 181.226 278.146 176.461 270.359 176.461C262.572 176.461 258.036 181.169 258.036 191.088Z" fill="#333333"/>
<path d="M312.2 174.748C312.327 174.42 312.55 174.138 312.841 173.938C313.132 173.739 313.477 173.633 313.831 173.633C314.059 173.632 314.284 173.675 314.495 173.762C314.706 173.848 314.897 173.975 315.058 174.136C315.218 174.296 315.345 174.487 315.431 174.697C315.517 174.907 315.559 175.131 315.557 175.358C315.548 175.615 315.497 175.87 315.403 176.11L303.493 207.318C303.382 207.66 303.166 207.959 302.873 208.171C302.581 208.382 302.229 208.497 301.867 208.497C301.506 208.497 301.153 208.382 300.861 208.171C300.569 207.959 300.352 207.66 300.242 207.318L288.331 176.11C288.238 175.87 288.186 175.615 288.178 175.358C288.175 175.131 288.218 174.907 288.304 174.697C288.39 174.487 288.516 174.296 288.677 174.136C288.838 173.975 289.029 173.848 289.24 173.762C289.45 173.675 289.676 173.632 289.904 173.633C290.257 173.633 290.602 173.739 290.894 173.938C291.185 174.138 291.408 174.42 291.534 174.748L301.863 201.963L312.2 174.748Z" fill="#333333"/>
<path d="M322.787 192.196V206.766C322.805 207.002 322.773 207.24 322.694 207.464C322.615 207.688 322.491 207.893 322.328 208.067C322.166 208.241 321.969 208.38 321.75 208.475C321.531 208.57 321.295 208.619 321.056 208.619C320.817 208.619 320.581 208.57 320.362 208.475C320.143 208.38 319.946 208.241 319.784 208.067C319.621 207.893 319.497 207.688 319.418 207.464C319.339 207.24 319.307 207.002 319.325 206.766V175.32C319.307 175.083 319.339 174.845 319.418 174.621C319.497 174.397 319.621 174.192 319.784 174.018C319.946 173.844 320.143 173.705 320.362 173.611C320.581 173.516 320.817 173.467 321.056 173.467C321.295 173.467 321.531 173.516 321.75 173.611C321.969 173.705 322.166 173.844 322.328 174.018C322.491 174.192 322.615 174.397 322.694 174.621C322.773 174.845 322.805 175.083 322.787 175.32V189.061H340.509V175.358C340.491 175.121 340.523 174.883 340.602 174.659C340.681 174.436 340.805 174.23 340.968 174.056C341.13 173.882 341.327 173.744 341.546 173.649C341.765 173.554 342.001 173.505 342.24 173.505C342.479 173.505 342.715 173.554 342.934 173.649C343.153 173.744 343.35 173.882 343.512 174.056C343.675 174.23 343.799 174.436 343.878 174.659C343.957 174.883 343.989 175.121 343.971 175.358V206.804C343.989 207.041 343.957 207.278 343.878 207.502C343.799 207.726 343.675 207.932 343.512 208.105C343.35 208.279 343.153 208.418 342.934 208.513C342.715 208.608 342.479 208.657 342.24 208.657C342.001 208.657 341.765 208.608 341.546 208.513C341.327 208.418 341.13 208.279 340.968 208.105C340.805 207.932 340.681 207.726 340.602 207.502C340.523 207.278 340.491 207.041 340.509 206.804V192.196H322.787Z" fill="#333333"/>
<path d="M360.313 184.411C361.801 184.348 363.285 184.63 364.645 185.235C366.005 185.84 367.204 186.753 368.148 187.899C368.375 188.165 368.5 188.503 368.502 188.852C368.506 189.045 368.471 189.238 368.398 189.418C368.325 189.598 368.216 189.761 368.079 189.898C367.941 190.035 367.776 190.143 367.595 190.215C367.414 190.288 367.221 190.323 367.026 190.319C366.788 190.321 366.554 190.266 366.343 190.16C366.131 190.054 365.947 189.9 365.808 189.709C365.145 188.913 364.301 188.286 363.345 187.88C362.389 187.474 361.349 187.3 360.313 187.375C355.623 187.375 353.13 190.357 353.13 196.58C353.13 202.802 355.623 205.833 360.313 205.833C362.473 205.812 364.559 205.044 366.21 203.66C366.478 203.434 366.818 203.309 367.169 203.307C367.561 203.307 367.937 203.462 368.214 203.737C368.491 204.012 368.646 204.386 368.646 204.775C368.644 205.022 368.583 205.265 368.468 205.483C368.353 205.702 368.187 205.89 367.985 206.033C365.846 207.839 363.119 208.811 360.313 208.768C353.744 208.768 349.821 204.87 349.821 196.58C349.821 188.289 353.744 184.411 360.313 184.411Z" fill="#333333"/>
<path d="M376.548 173.681V202.621C376.548 204.641 377.209 205.479 378.581 205.479C378.792 205.463 379.004 205.49 379.204 205.559C379.404 205.627 379.588 205.737 379.743 205.879C379.899 206.022 380.023 206.195 380.108 206.388C380.192 206.581 380.236 206.789 380.236 206.999C380.236 207.21 380.192 207.418 380.108 207.61C380.023 207.803 379.899 207.976 379.743 208.119C379.588 208.262 379.404 208.371 379.204 208.44C379.004 208.509 378.792 208.536 378.581 208.519C375.176 208.519 373.287 206.489 373.287 202.602V173.681C373.299 173.256 373.475 172.852 373.779 172.552C374.082 172.252 374.49 172.08 374.917 172.07C375.348 172.07 375.761 172.24 376.067 172.541C376.372 172.843 376.545 173.253 376.548 173.681V173.681Z" fill="#333333"/>
<path d="M404.292 196.548C404.292 204.839 400.216 208.736 393.599 208.736C386.982 208.736 382.916 204.839 382.916 196.548C382.916 188.258 387.04 184.408 393.599 184.408C400.159 184.408 404.292 188.248 404.292 196.548ZM400.983 196.548C400.983 190.173 398.289 187.343 393.599 187.343C388.91 187.343 386.225 190.202 386.225 196.548C386.225 202.895 388.919 205.801 393.599 205.801C398.279 205.801 401.022 203.019 401.022 196.548H400.983Z" fill="#333333"/>
<path d="M412.136 186.335V199.533C412.136 202.82 413.2 205.651 418.34 205.651C423.481 205.651 424.555 202.792 424.555 199.533V186.335C424.557 186.119 424.603 185.906 424.688 185.707C424.774 185.509 424.899 185.329 425.055 185.178C425.211 185.028 425.395 184.909 425.597 184.83C425.799 184.75 426.016 184.711 426.233 184.715C426.444 184.718 426.653 184.762 426.847 184.844C427.041 184.927 427.216 185.047 427.363 185.198C427.51 185.349 427.626 185.527 427.704 185.722C427.781 185.917 427.819 186.125 427.815 186.335V199.533C427.815 204.297 426.233 208.738 418.34 208.738C410.448 208.738 408.875 204.336 408.875 199.533V186.335C408.871 186.121 408.911 185.909 408.991 185.711C409.072 185.512 409.192 185.332 409.344 185.181C409.496 185.03 409.678 184.911 409.877 184.831C410.077 184.75 410.29 184.711 410.506 184.715C410.937 184.718 411.35 184.889 411.656 185.192C411.961 185.496 412.133 185.906 412.136 186.335V186.335Z" fill="#333333"/>
<path d="M449.545 187.696V173.679C449.545 173.249 449.717 172.837 450.022 172.533C450.328 172.229 450.743 172.059 451.175 172.059C451.608 172.059 452.022 172.229 452.328 172.533C452.634 172.837 452.806 173.249 452.806 173.679V198.807C452.806 205.477 448.634 208.774 442.832 208.774C436.263 208.774 432.389 204.877 432.389 196.587C432.389 188.296 436.062 184.446 442.621 184.446C443.949 184.422 445.265 184.703 446.466 185.266C447.666 185.83 448.72 186.661 449.545 187.696V187.696ZM449.545 191.793C449.545 191.793 447.627 187.343 442.832 187.343C438.037 187.343 435.649 190.326 435.649 196.548C435.649 202.771 438.143 205.801 442.832 205.801C446.745 205.801 449.545 203.581 449.545 198.769V191.793Z" fill="#333333"/>
</g>
<path d="M484.236 209.539C482.079 209.539 480.13 209.056 478.391 208.089C476.684 207.091 475.315 205.674 474.285 203.838C473.286 201.97 472.787 199.732 472.787 197.124C472.787 194.483 473.335 192.244 474.43 190.409C475.525 188.541 476.974 187.124 478.777 186.158C480.613 185.159 482.578 184.66 484.671 184.66C486.185 184.66 487.505 184.918 488.632 185.433C489.759 185.948 490.758 186.576 491.627 187.317L488.922 190.94C488.31 190.393 487.682 189.974 487.038 189.684C486.394 189.362 485.702 189.201 484.961 189.201C483.061 189.201 481.499 189.926 480.275 191.375C479.083 192.824 478.488 194.74 478.488 197.124C478.488 199.475 479.067 201.375 480.227 202.824C481.418 204.273 482.948 204.998 484.816 204.998C485.75 204.998 486.619 204.804 487.425 204.418C488.262 203.999 489.019 203.516 489.695 202.969L491.966 206.64C490.871 207.606 489.647 208.331 488.294 208.814C486.942 209.297 485.589 209.539 484.236 209.539ZM504.695 209.539C502.73 209.539 500.894 209.056 499.188 208.089C497.481 207.091 496.096 205.674 495.033 203.838C493.97 201.97 493.439 199.732 493.439 197.124C493.439 194.483 493.97 192.244 495.033 190.409C496.096 188.541 497.481 187.124 499.188 186.158C500.894 185.159 502.73 184.66 504.695 184.66C506.691 184.66 508.543 185.159 510.25 186.158C511.957 187.124 513.342 188.541 514.405 190.409C515.467 192.244 515.999 194.483 515.999 197.124C515.999 199.732 515.467 201.97 514.405 203.838C513.342 205.674 511.957 207.091 510.25 208.089C508.543 209.056 506.691 209.539 504.695 209.539ZM504.695 204.998C506.434 204.998 507.803 204.273 508.801 202.824C509.799 201.375 510.298 199.475 510.298 197.124C510.298 194.74 509.799 192.824 508.801 191.375C507.803 189.926 506.434 189.201 504.695 189.201C502.956 189.201 501.587 189.926 500.589 191.375C499.622 192.824 499.139 194.74 499.139 197.124C499.139 199.475 499.622 201.375 500.589 202.824C501.587 204.273 502.956 204.998 504.695 204.998ZM521.014 208.959V185.24H525.604L525.99 188.476H526.183C527.182 187.414 528.261 186.512 529.42 185.771C530.612 185.03 531.948 184.66 533.43 184.66C535.169 184.66 536.554 185.047 537.584 185.819C538.647 186.56 539.452 187.591 540 188.911C541.127 187.687 542.302 186.673 543.526 185.868C544.782 185.063 546.151 184.66 547.632 184.66C550.144 184.66 551.996 185.481 553.188 187.124C554.379 188.766 554.975 191.085 554.975 194.08V208.959H549.371V194.805C549.371 192.84 549.065 191.455 548.453 190.65C547.874 189.845 546.972 189.443 545.748 189.443C544.267 189.443 542.608 190.425 540.772 192.389V208.959H535.217V194.805C535.217 192.84 534.911 191.455 534.299 190.65C533.719 189.845 532.802 189.443 531.546 189.443C530.064 189.443 528.406 190.425 526.57 192.389V208.959H521.014ZM561.244 218.331V185.24H565.833L566.22 187.752H566.413C567.411 186.914 568.523 186.19 569.746 185.578C571.002 184.966 572.274 184.66 573.563 184.66C576.526 184.66 578.812 185.755 580.422 187.945C582.065 190.135 582.886 193.066 582.886 196.737C582.886 199.442 582.403 201.761 581.437 203.693C580.471 205.594 579.215 207.043 577.669 208.041C576.155 209.039 574.513 209.539 572.741 209.539C571.711 209.539 570.68 209.313 569.65 208.862C568.619 208.379 567.621 207.735 566.655 206.93L566.8 210.891V218.331H561.244ZM571.582 204.949C573.16 204.949 574.48 204.257 575.543 202.872C576.606 201.487 577.137 199.458 577.137 196.785C577.137 194.402 576.735 192.55 575.93 191.23C575.125 189.91 573.82 189.249 572.017 189.249C570.342 189.249 568.603 190.135 566.8 191.906V202.969C567.669 203.677 568.506 204.193 569.312 204.515C570.117 204.804 570.873 204.949 571.582 204.949ZM593.211 209.539C591.15 209.539 589.459 208.895 588.139 207.606C586.851 206.318 586.206 204.643 586.206 202.582C586.206 200.038 587.318 198.074 589.54 196.689C591.762 195.272 595.305 194.306 600.168 193.79C600.135 192.534 599.797 191.455 599.153 190.554C598.541 189.62 597.43 189.153 595.82 189.153C594.66 189.153 593.517 189.378 592.39 189.829C591.295 190.28 590.216 190.827 589.153 191.471L587.124 187.752C588.445 186.914 589.926 186.19 591.569 185.578C593.243 184.966 595.015 184.66 596.883 184.66C599.845 184.66 602.052 185.546 603.501 187.317C604.982 189.056 605.723 191.584 605.723 194.901V208.959H601.134L600.747 206.35H600.554C599.491 207.252 598.348 208.009 597.124 208.621C595.933 209.233 594.628 209.539 593.211 209.539ZM594.999 205.191C595.965 205.191 596.834 204.966 597.607 204.515C598.412 204.032 599.266 203.387 600.168 202.582V197.268C596.947 197.687 594.709 198.315 593.453 199.152C592.197 199.958 591.569 200.956 591.569 202.148C591.569 203.21 591.891 203.983 592.535 204.466C593.179 204.949 594 205.191 594.999 205.191ZM611.888 208.959V185.24H616.477L616.864 188.428H617.057C618.12 187.398 619.279 186.512 620.535 185.771C621.791 185.03 623.224 184.66 624.835 184.66C627.379 184.66 629.231 185.481 630.39 187.124C631.55 188.766 632.129 191.085 632.129 194.08V208.959H626.574V194.805C626.574 192.84 626.284 191.455 625.704 190.65C625.125 189.845 624.175 189.443 622.854 189.443C621.824 189.443 620.906 189.7 620.101 190.215C619.328 190.699 618.442 191.423 617.444 192.389V208.959H611.888ZM640.031 218.717C639.387 218.717 638.823 218.669 638.34 218.572C637.857 218.476 637.39 218.363 636.939 218.234L637.954 213.886C638.179 213.951 638.437 214.015 638.727 214.08C639.049 214.176 639.355 214.225 639.645 214.225C640.901 214.225 641.899 213.838 642.64 213.065C643.413 212.324 643.992 211.358 644.379 210.167L644.814 208.669L635.49 185.24H641.142L645.248 196.882C645.603 197.913 645.941 199.008 646.263 200.167C646.617 201.294 646.971 202.421 647.326 203.548H647.519C647.809 202.454 648.098 201.342 648.388 200.215C648.71 199.056 649.016 197.945 649.306 196.882L652.881 185.24H658.243L649.644 210.022C648.646 212.695 647.438 214.804 646.021 216.35C644.604 217.928 642.607 218.717 640.031 218.717Z" fill="#333333"/>
<defs>
<clipPath id="clip0_1738_9477">
<rect width="285.807" height="44.9584" fill="white" transform="translate(167 167)"/>
</clipPath>
</defs>
</svg>
